<?xml version="1.0" standalone="no"?>
<!DOCTYPE svg PUBLIC "-//W3C//DTD SVG 20010904//EN"
 "http://www.w3.org/TR/2001/REC-SVG-20010904/DTD/svg10.dtd">
<svg version="1.0" xmlns="http://www.w3.org/2000/svg"
 width="500.000000pt" height="500.000000pt" viewBox="0 0 500.000000 500.000000"
 preserveAspectRatio="xMidYMid meet">
<metadata>
Created by potrace 1.11, written by Peter Selinger 2001-2013
</metadata>
<g transform="translate(0.000000,500.000000) scale(0.100000,-0.100000)"
fill="#000000" stroke="none">
<path d="M2345 4973 c-108 -9 -341 -47 -430 -69 -308 -78 -620 -223 -865 -402
-298 -219 -552 -514 -728 -846 -210 -396 -305 -836 -280 -1296 12 -208 13
-220 47 -376 46 -213 108 -395 195 -574 35 -70 49 -96 105 -195 13 -22 53 -83
90 -135 273 -393 657 -698 1101 -878 588 -237 1241 -238 1834 -2 387 153 781
449 1021 765 201 265 320 489 407 765 16 52 34 106 39 119 11 27 43 190 60
306 17 119 23 514 9 615 -17 128 -59 337 -81 410 -38 120 -71 215 -90 258 -11
24 -27 62 -36 85 -20 51 -119 236 -159 298 -344 532 -843 903 -1433 1065 -261
72 -583 106 -806 87z m390 -208 c72 -8 162 -22 200 -30 39 -8 92 -20 119 -25
174 -35 517 -187 695 -307 412 -280 710 -657 878 -1113 20 -52 39 -108 43
-125 78 -293 94 -406 92 -655 -1 -190 -11 -308 -42 -460 -17 -86 -60 -245 -80
-295 -58 -145 -98 -237 -116 -270 -70 -130 -92 -167 -137 -235 -329 -491 -834
-838 -1398 -961 -213 -46 -558 -64 -732 -38 -330 48 -522 107 -763 230 -214
110 -395 241 -559 404 -375 372 -580 780 -666 1330 -17 106 -18 466 -1 575 54
359 142 609 317 901 171 286 478 592 762 761 430 255 920 366 1388 313z"/>
<path d="M2310 4509 c-236 -31 -361 -56 -383 -78 -6 -6 -20 -11 -32 -11 -36 0
-216 -76 -335 -142 -8 -4 -22 -11 -30 -15 -33 -14 -170 -107 -170 -115 0 -4
-7 -8 -15 -8 -8 0 -23 -8 -33 -17 -9 -10 -45 -40 -80 -67 -34 -27 -62 -53 -62
-57 0 -5 -5 -9 -11 -9 -19 0 -88 -82 -82 -99 3 -12 2 -13 -4 -3 -7 9 -23 -3
-59 -45 -27 -32 -61 -70 -77 -85 -15 -15 -27 -30 -27 -34 0 -3 -13 -23 -28
-43 -16 -20 -32 -43 -35 -51 -4 -8 -16 -28 -27 -45 -11 -16 -23 -37 -27 -45
-3 -8 -9 -17 -13 -20 -7 -5 -90 -159 -90 -166 0 -2 136 -4 303 -4 166 0 307
-4 313 -8 14 -9 18 -1656 4 -1682 -6 -11 -5 -21 2 -28 9 -9 8 -12 -4 -12 -9 0
-18 7 -21 15 -5 12 -52 14 -296 14 -160 0 -291 -2 -291 -3 0 -7 46 -101 60
-123 8 -13 21 -23 28 -23 9 0 12 -6 8 -16 -3 -8 3 -27 13 -42 10 -15 32 -50
49 -77 17 -28 40 -59 50 -71 11 -11 36 -42 56 -70 50 -66 224 -234 316 -304
25 -19 47 -38 48 -42 2 -5 10 -8 18 -8 8 0 14 -4 14 -9 0 -8 35 -33 95 -66 11
-6 38 -23 60 -36 79 -50 296 -149 326 -149 10 0 21 -4 24 -10 3 -5 17 -10 30
-10 13 0 26 -4 29 -9 3 -5 20 -11 38 -14 18 -3 53 -10 78 -16 105 -26 200 -42
272 -48 l76 -5 2 690 c0 380 -2 702 -6 716 -4 18 -15 28 -33 32 -48 10 -181
74 -181 87 0 4 -9 7 -20 7 -11 0 -20 3 -20 8 0 4 -17 25 -38 47 -75 82 -142
188 -142 226 0 9 -5 19 -11 21 -7 2 -11 55 -12 148 -1 143 9 201 39 240 6 8
16 30 22 48 12 36 36 70 93 132 45 48 46 47 122 -78 52 -85 71 -142 47 -142
-11 0 -35 -51 -45 -95 -14 -63 -17 -115 -6 -115 7 0 9 -15 5 -43 -5 -32 -2
-46 10 -56 9 -7 16 -20 16 -27 0 -35 126 -144 149 -130 5 3 7 55 5 116 -5 122
4 139 36 64 48 -110 93 -134 131 -69 11 19 29 37 39 40 10 3 20 14 23 23 2 9
1 -27 -1 -80 -3 -67 -1 -98 6 -98 18 0 84 48 120 87 40 42 49 65 67 158 12 60
12 74 -1 99 -8 16 -14 35 -14 43 0 41 -73 130 -156 189 -29 21 -29 23 -35 140
-3 65 -3 125 -1 132 8 22 68 5 165 -46 139 -73 217 -161 278 -313 32 -79 34
-91 33 -199 -1 -170 -48 -293 -149 -394 -30 -31 -55 -60 -55 -66 0 -5 -4 -10
-9 -10 -5 0 -37 -16 -72 -35 -34 -20 -87 -44 -118 -54 l-56 -18 -3 -711 -2
-712 43 0 c98 0 406 62 502 100 11 5 42 16 68 26 26 9 50 21 53 25 3 5 13 9
23 9 10 0 38 11 62 24 24 13 77 41 117 61 39 21 72 42 72 46 0 5 5 9 11 9 15
0 189 121 189 132 0 4 5 8 10 8 20 0 212 185 276 265 59 74 97 125 114 150 55
82 90 136 90 139 0 2 18 36 40 76 22 40 40 77 40 81 0 5 -147 10 -327 11
l-328 3 -5 750 c-3 413 -3 791 0 840 l5 90 332 3 332 2 -22 48 c-32 68 -103
187 -151 252 -23 30 -43 60 -46 66 -11 25 -181 212 -251 276 -114 102 -156
138 -162 138 -11 0 -102 64 -110 77 -4 7 -12 13 -17 13 -5 0 -32 14 -60 31
-28 17 -57 29 -65 25 -9 -3 -12 0 -8 10 3 7 0 14 -6 14 -6 0 -48 17 -93 39
-46 21 -99 44 -118 51 -19 6 -44 15 -55 20 -77 29 -280 80 -319 80 -17 0 -46
4 -65 10 -19 5 -65 12 -102 15 l-69 5 1 -685 c0 -594 2 -683 14 -678 8 3 15 0
15 -6 0 -6 -7 -11 -15 -11 -8 0 -15 -7 -15 -15 0 -8 8 -15 18 -15 16 -1 16 -1
-1 -11 -30 -17 -41 4 -45 84 -1 39 -9 176 -17 302 -8 127 -19 325 -25 440 -15
276 -26 404 -34 412 -22 22 -29 -42 -47 -398 -10 -211 -23 -458 -29 -549 -5
-91 -12 -226 -15 -300 -7 -174 -16 -285 -25 -299 -13 -22 -41 2 -116 96 -72
89 -85 123 -50 123 7 0 16 7 20 15 3 8 15 15 28 15 12 0 42 7 65 16 l43 17 0
241 c1 132 2 453 3 713 1 305 -2 475 -8 480 -5 5 -35 6 -65 2z m-7 -36 c-7 -2
-19 -2 -25 0 -7 3 -2 5 12 5 14 0 19 -2 13 -5z m434 -235 c-1 -40 -3 -10 -3
67 0 77 1 110 3 73 2 -37 2 -100 0 -140z m-757 172 c0 -5 -5 -10 -11 -10 -5 0
-7 5 -4 10 3 6 8 10 11 10 2 0 4 -4 4 -10z m-85 -20 c4 -6 15 -8 25 -5 13 4
22 -1 30 -15 14 -26 5 -38 -18 -24 -65 41 -62 40 -76 22 -14 -19 -46 -24 -46
-8 0 6 8 10 19 10 10 0 24 7 31 15 15 18 26 19 35 5z m135 -10 c0 -5 -4 -10
-10 -10 -5 0 -10 5 -10 10 0 6 5 10 10 10 6 0 10 -4 10 -10z m1185 -30 c3 -6
-1 -7 -9 -4 -18 7 -21 14 -7 14 6 0 13 -4 16 -10z m-1445 -10 c0 -5 -5 -10
-11 -10 -5 0 -7 5 -4 10 3 6 8 10 11 10 2 0 4 -4 4 -10z m1505 -9 c10 -18 -17
-23 -33 -7 -15 15 -15 16 5 16 12 0 24 -4 28 -9z m-1558 -17 c-3 -3 -12 -4
-19 -1 -8 3 -5 6 6 6 11 1 17 -2 13 -5z m1613 -4 c0 -5 -4 -10 -9 -10 -6 0
-13 5 -16 10 -3 6 1 10 9 10 9 0 16 -4 16 -10z m-1745 -60 c3 -5 -3 -10 -14
-10 -12 0 -21 5 -21 10 0 6 6 10 14 10 8 0 18 -4 21 -10z m-55 -30 c0 -5 -7
-10 -15 -10 -8 0 -15 5 -15 10 0 6 7 10 15 10 8 0 15 -4 15 -10z m67 -20 c-13
-22 -13 -22 -42 -11 -17 7 -17 8 8 15 15 3 27 11 27 17 0 6 4 7 10 4 6 -4 5
-13 -3 -25z m1873 0 c0 -5 -7 -10 -16 -10 -8 0 -12 5 -9 10 3 6 10 10 16 10 5
0 9 -4 9 -10z m-50 -10 c0 -5 -7 -10 -15 -10 -8 0 -15 5 -15 10 0 6 7 10 15
10 8 0 15 -4 15 -10z m-1982 -36 c-7 -15 -14 -21 -16 -15 -5 16 5 41 17 41 7
0 6 -10 -1 -26z m2077 16 c-3 -5 -10 -10 -16 -10 -5 0 -9 5 -9 10 0 6 7 10 16
10 8 0 12 -4 9 -10z m-1158 -32 c-3 -8 -6 -5 -6 6 -1 11 2 17 5 13 3 -3 4 -12
1 -19z m-985 -38 c-33 -30 -67 -40 -60 -17 3 6 15 14 28 15 13 2 30 10 37 18
8 8 17 14 21 14 4 0 -8 -14 -26 -30z m50 -35 c0 -5 -5 -11 -11 -13 -6 -2 -11
4 -11 13 0 9 5 15 11 13 6 -2 11 -8 11 -13z m2323 -5 c3 -5 1 -10 -4 -10 -6 0
-11 5 -11 10 0 6 2 10 4 10 3 0 8 -4 11 -10z m-2285 -30 c0 -5 -4 -10 -10 -10
-5 0 -10 5 -10 10 0 6 5 10 10 10 6 0 10 -4 10 -10z m2315 0 c3 -5 1 -10 -4
-10 -6 0 -11 5 -11 10 0 6 2 10 4 10 3 0 8 -4 11 -10z m-25 -45 c0 -8 -4 -15
-10 -15 -5 0 -10 7 -10 15 0 8 5 15 10 15 6 0 10 -7 10 -15z m80 -20 c7 -8 20
-15 29 -15 17 0 46 -38 37 -47 -3 -3 -8 2 -12 11 -3 9 -13 16 -21 16 -23 0
-74 30 -68 40 9 14 21 12 35 -5z m-2670 -15 c0 -5 -4 -10 -10 -10 -5 0 -10 5
-10 10 0 6 5 10 10 10 6 0 10 -4 10 -10z m-30 -30 c0 -5 -5 -10 -11 -10 -5 0
-7 5 -4 10 3 6 8 10 11 10 2 0 4 -4 4 -10z m2747 -82 c-3 -8 -6 -5 -6 6 -1 11
2 17 5 13 3 -3 4 -12 1 -19z m86 -12 c3 -8 0 -17 -8 -19 -15 -7 -25 1 -25 20
0 17 26 17 33 -1z m-1616 -63 c-3 -10 -5 -2 -5 17 0 19 2 27 5 18 2 -10 2 -26
0 -35z m-1327 22 c0 -8 -4 -15 -10 -15 -5 0 -10 -7 -10 -15 0 -8 -7 -15 -15
-15 -8 0 -15 5 -15 10 0 6 7 13 15 16 8 4 15 12 15 20 0 8 5 14 10 14 6 0 10
-7 10 -15z m3117 -182 c-3 -3 -11 -2 -17 2 -9 6 -9 10 1 16 14 8 27 -7 16 -18z
m-3262 -2 c3 -5 1 -12 -5 -16 -5 -3 -10 1 -10 9 0 18 6 21 15 7z m1476 -38
c-12 -20 -14 -14 -5 12 4 9 9 14 11 11 3 -2 0 -13 -6 -23z m306 -70 c-2 -21
-4 -6 -4 32 0 39 2 55 4 38 2 -18 2 -50 0 -70z m-1807 39 c0 -24 -1 -25 -16
-10 -10 9 -14 24 -10 33 9 23 26 9 26 -23z m47 16 c-3 -8 -6 -5 -6 6 -1 11 2
17 5 13 3 -3 4 -12 1 -19z m3273 -28 c0 -11 -4 -20 -10 -20 -5 0 -10 9 -10 20
0 11 5 20 10 20 6 0 10 -9 10 -20z m50 -16 c0 -8 -5 -12 -10 -9 -6 4 -8 11 -5
16 9 14 15 11 15 -7z m-1893 -36 c-3 -7 -5 -2 -5 12 0 14 2 19 5 13 2 -7 2
-19 0 -25z m1303 -87 c0 -10 -6 -23 -12 -29 -10 -8 -13 -3 -14 19 -1 18 4 29
12 29 8 0 14 -8 14 -19z m-2527 2 c-40 -2 -107 -2 -150 0 -43 1 -10 3 72 3 83
0 118 -2 78 -3z m1243 -61 c-12 -11 -17 7 -9 34 l8 29 3 -28 c2 -16 1 -31 -2
-35z m-556 -22 c0 -5 -7 -10 -15 -10 -8 0 -15 5 -15 10 0 6 7 10 15 10 8 0 15
-4 15 -10z m190 -8 c0 -5 18 -28 40 -51 22 -23 40 -46 40 -51 0 -6 7 -10 15
-10 8 0 15 -5 15 -12 0 -6 8 -21 18 -32 9 -11 -1 -5 -24 14 -22 19 -53 53 -69
75 -16 22 -35 44 -42 48 -15 9 -17 27 -3 27 6 0 10 -4 10 -8z m-80 -18 c0 -8
-4 -12 -10 -9 -5 3 -10 10 -10 16 0 5 5 9 10 9 6 0 10 -7 10 -16z m30 -39 c0
-8 -4 -15 -10 -15 -5 0 -10 7 -10 15 0 8 5 15 10 15 6 0 10 -7 10 -15z m420
-35 c0 -11 -4 -20 -10 -20 -5 0 -10 9 -10 20 0 11 5 20 10 20 6 0 10 -9 10
-20z m-453 -22 c-3 -8 -6 -5 -6 6 -1 11 2 17 5 13 3 -3 4 -12 1 -19z m97 -55
c16 -24 26 -46 23 -50 -13 -12 -38 8 -43 37 -4 16 -13 35 -20 41 -8 6 -14 21
-13 33 0 20 1 20 12 2 7 -10 25 -38 41 -63z m156 37 c0 -5 -2 -10 -4 -10 -3 0
-8 5 -11 10 -3 6 -1 10 4 10 6 0 11 -4 11 -10z m59 -12 c11 -28 6 -38 -19 -38
-26 0 -33 15 -18 40 17 26 27 25 37 -2z m1421 -48 c0 -14 -5 -32 -10 -40 -7
-11 -10 1 -10 40 0 39 3 51 10 40 5 -8 10 -26 10 -40z m-1690 -12 c0 -18 -15
-25 -23 -10 -2 4 -7 20 -11 37 -7 29 -7 29 13 11 12 -11 21 -27 21 -38z m785
22 c-3 -5 -11 -10 -16 -10 -6 0 -7 5 -4 10 3 6 11 10 16 10 6 0 7 -4 4 -10z
m-559 -14 c18 -14 18 -15 1 -21 -9 -4 -24 -2 -32 5 -33 28 -5 42 31 16z m169
4 c-3 -5 -11 -10 -16 -10 -6 0 -7 5 -4 10 3 6 11 10 16 10 6 0 7 -4 4 -10z
m-285 -54 c0 -3 -4 -8 -10 -11 -5 -3 -10 -1 -10 4 0 6 5 11 10 11 6 0 10 -2
10 -4z m885 -16 c3 -6 -4 -10 -17 -10 -18 0 -20 2 -8 10 19 12 18 12 25 0z
m-877 -27 c-4 -22 -22 -20 -26 1 -2 10 3 16 13 16 10 0 15 -7 13 -17z m840
-21 c3 -9 -2 -13 -14 -10 -9 1 -19 9 -22 16 -3 9 2 13 14 10 9 -1 19 -9 22
-16z m-808 -28 c0 -8 -7 -14 -15 -14 -15 0 -21 21 -9 33 10 9 24 -2 24 -19z
m868 4 c-6 -18 -28 -21 -28 -4 0 9 7 16 16 16 9 0 14 -5 12 -12z m66 -29 c-9
-15 -24 10 -17 29 5 12 7 12 15 -2 5 -9 6 -21 2 -27z m-974 -28 c0 -6 -4 -13
-10 -16 -5 -3 -10 1 -10 9 0 9 5 16 10 16 6 0 10 -4 10 -9z m-100 -161 c0 -11
-4 -20 -10 -20 -5 0 -10 9 -10 20 0 11 5 20 10 20 6 0 10 -9 10 -20z m1120 0
c0 -5 -4 -10 -10 -10 -5 0 -10 5 -10 10 0 6 5 10 10 10 6 0 10 -4 10 -10z m17
-67 c-3 -10 -5 -2 -5 17 0 19 2 27 5 18 2 -10 2 -26 0 -35z m-419 25 c17 -17
15 -28 -7 -28 -19 0 -35 23 -24 34 9 9 18 7 31 -6z m482 -45 c0 -7 -4 -13 -10
-13 -5 0 -10 12 -10 28 0 21 2 24 10 12 5 -8 10 -21 10 -27z m-866 -2 c3 -4
-3 -16 -14 -26 -20 -18 -25 -11 -14 19 7 18 20 21 28 7z m366 -88 c0 -53 -3
-94 -6 -90 -6 5 -7 47 -5 157 1 17 3 30 6 30 3 0 5 -43 5 -97z m101 60 c5 -14
8 -32 5 -40 -9 -22 -27 -14 -37 17 -6 17 -16 30 -22 30 -16 0 15 20 31 20 7 0
17 -12 23 -27z m-854 -45 c-3 -8 -6 -5 -6 6 -1 11 2 17 5 13 3 -3 4 -12 1 -19z
m453 -49 c0 -6 -4 -7 -10 -4 -5 3 -10 11 -10 16 0 6 5 7 10 4 6 -3 10 -11 10
-16z m-110 -19 c0 -16 -4 -30 -8 -30 -5 0 -7 14 -4 30 2 17 6 30 8 30 2 0 4
-13 4 -30z m527 -2 c-3 -7 -5 -2 -5 12 0 14 2 19 5 13 2 -7 2 -19 0 -25z
m-868 -50 c0 -35 -2 -39 -9 -21 -8 19 -3 63 6 63 2 0 4 -19 3 -42z m631 22 c0
-24 -26 -38 -42 -22 -16 16 -2 42 22 42 13 0 20 -7 20 -20z m-150 -17 c0 -9
-3 -13 -7 -10 -3 4 -12 2 -20 -4 -17 -15 -18 6 0 25 14 16 27 11 27 -11z m727
-70 c-2 -16 -4 -5 -4 22 0 28 2 40 4 28 2 -13 2 -35 0 -50z m-447 33 c0 -17
-14 -29 -23 -20 -8 8 3 34 14 34 5 0 9 -6 9 -14z m110 -10 c0 -7 -11 -21 -25
-30 -29 -19 -33 -6 -8 24 20 23 33 26 33 6z m-533 -18 c-3 -8 -6 -5 -6 6 -1
11 2 17 5 13 3 -3 4 -12 1 -19z m120 -30 c-3 -8 -6 -5 -6 6 -1 11 2 17 5 13 3
-3 4 -12 1 -19z m793 -25 c0 -7 -4 -13 -10 -13 -5 0 -10 12 -10 28 0 21 2 24
10 12 5 -8 10 -21 10 -27z m-469 -6 c-13 -13 -26 -3 -16 12 3 6 11 8 17 5 6
-4 6 -10 -1 -17z m-381 -24 c22 -19 27 -43 9 -43 -6 0 -13 9 -16 20 -3 11 -9
20 -14 20 -5 0 -9 5 -9 10 0 14 7 13 30 -7z m-395 -40 c-9 -37 -18 -20 -9 19
4 18 9 27 11 20 3 -7 2 -24 -2 -39z m805 21 c0 -14 -21 -19 -33 -7 -9 9 13 34
24 27 5 -3 9 -12 9 -20z m-350 6 c0 -5 -5 -10 -11 -10 -5 0 -7 5 -4 10 3 6 8
10 11 10 2 0 4 -4 4 -10z m780 -46 c0 -21 -4 -33 -10 -29 -17 10 -11 65 7 65
2 0 3 -16 3 -36z m-480 8 c0 -13 -12 -22 -22 -16 -10 6 -1 24 13 24 5 0 9 -4
9 -8z m429 -55 c1 -10 -3 -15 -9 -12 -5 3 -10 21 -9 38 0 27 2 29 9 12 5 -11
9 -28 9 -38z m-73 -64 c-10 -10 -19 5 -10 18 6 11 8 11 12 0 2 -7 1 -15 -2
-18z m0 -70 c-10 -10 -19 5 -10 18 6 11 8 11 12 0 2 -7 1 -15 -2 -18z m-26
-23 c0 -5 -5 -10 -11 -10 -5 0 -7 5 -4 10 3 6 8 10 11 10 2 0 4 -4 4 -10z
m-115 -70 c-3 -5 -13 -10 -21 -10 -8 0 -12 5 -9 10 3 6 13 10 21 10 8 0 12 -4
9 -10z m-120 -59 c3 -5 1 -13 -5 -16 -15 -9 -43 3 -35 15 8 13 32 13 40 1z
m-695 -5 c0 -3 -4 -8 -10 -11 -5 -3 -10 -1 -10 4 0 6 5 11 10 11 6 0 10 -2 10
-4z m1567 -38 c-3 -8 -6 -5 -6 6 -1 11 2 17 5 13 3 -3 4 -12 1 -19z m-30 -40
c-3 -8 -6 -5 -6 6 -1 11 2 17 5 13 3 -3 4 -12 1 -19z m631 -245 c15 -33 15
-43 2 -43 -5 0 -10 9 -10 19 0 11 -4 23 -10 26 -12 7 -13 25 -2 25 4 0 13 -12
20 -27z m42 17 c0 -5 -4 -10 -10 -10 -5 0 -10 5 -10 10 0 6 5 10 10 10 6 0 10
-4 10 -10z m-96 -36 c4 -10 1 -14 -6 -12 -15 5 -23 28 -10 28 5 0 13 -7 16
-16z m-3354 -4 c0 -5 -2 -10 -4 -10 -3 0 -8 5 -11 10 -3 6 -1 10 4 10 6 0 11
-4 11 -10z m3390 -61 c0 -17 -20 -29 -20 -11 0 4 -3 18 -7 32 -6 22 -5 24 10
11 9 -7 17 -22 17 -32z m-40 -19 c0 -5 -4 -10 -10 -10 -5 0 -10 5 -10 10 0 6
5 10 10 10 6 0 10 -4 10 -10z m-3265 -20 c3 -5 -1 -10 -9 -10 -9 0 -16 5 -16
10 0 6 4 10 9 10 6 0 13 -4 16 -10z m-29 -57 c-10 -10 -36 18 -36 40 0 18 2
17 21 -7 12 -15 19 -30 15 -33z m3294 22 c0 -8 -4 -15 -10 -15 -5 0 -10 7 -10
15 0 8 5 15 10 15 6 0 10 -7 10 -15z m-100 -134 c-6 -12 -15 -21 -20 -21 -10
0 -3 28 14 49 15 19 20 -3 6 -28z m-3025 -31 c-3 -6 -10 -10 -16 -10 -10 0
-12 33 -2 44 9 9 26 -22 18 -34z m-65 20 c0 -5 -4 -10 -10 -10 -5 0 -10 5 -10
10 0 6 5 10 10 10 6 0 10 -4 10 -10z m30 -36 c0 -14 -3 -14 -15 -4 -8 7 -15
14 -15 16 0 2 7 4 15 4 8 0 15 -7 15 -16z m40 -64 c0 -5 -4 -10 -10 -10 -5 0
-10 5 -10 10 0 6 5 10 10 10 6 0 10 -4 10 -10z m115 0 c4 -6 4 -18 1 -26 -5
-13 -9 -13 -31 3 -13 10 -25 21 -25 26 0 11 48 8 55 -3z m-77 -38 c6 -18 -15
-14 -22 4 -4 10 -1 14 6 12 6 -2 14 -10 16 -16z m2797 9 c3 -5 1 -12 -5 -16
-5 -3 -10 1 -10 9 0 18 6 21 15 7z m75 2 c0 -13 -43 -53 -57 -53 -9 0 -4 11
14 30 27 28 43 37 43 23z m-2833 -49 c-9 -9 -28 6 -21 18 4 6 10 6 17 -1 6 -6
8 -13 4 -17z m55 -26 c-15 -15 -26 -4 -18 18 5 13 9 15 18 6 9 -9 9 -15 0 -24z
m2701 -3 c-3 -9 -8 -14 -10 -11 -3 3 -2 9 2 15 9 16 15 13 8 -4z m-2723 -25
c0 -5 -4 -10 -10 -10 -5 0 -10 5 -10 10 0 6 5 10 10 10 6 0 10 -4 10 -10z
m157 -52 c-3 -8 -6 -5 -6 6 -1 11 2 17 5 13 3 -3 4 -12 1 -19z m2463 -8 c0 -5
-4 -10 -10 -10 -5 0 -10 5 -10 10 0 6 5 10 10 10 6 0 10 -4 10 -10z m-2480
-25 c0 -8 -6 -15 -14 -15 -8 0 -16 7 -20 15 -4 10 1 15 14 15 11 0 20 -7 20
-15z m2356 -81 c-11 -7 -22 -11 -25 -8 -3 3 3 12 13 20 11 7 22 11 25 8 3 -3
-3 -12 -13 -20z m-2216 -26 c33 -21 34 -23 12 -26 -15 -2 -32 6 -49 22 -32 32
-11 34 37 4z m2080 7 c0 -8 -9 -15 -20 -15 -20 0 -26 11 -13 23 12 13 33 7 33
-8z m75 -15 c-20 -22 -35 -26 -35 -10 0 6 6 10 14 10 8 0 17 7 20 16 4 9 9 14
13 10 3 -3 -2 -15 -12 -26z m-1991 -105 c11 -8 17 -17 14 -21 -6 -6 -68 23
-68 31 0 11 36 4 54 -10z m63 9 c-3 -3 -12 -4 -19 -1 -8 3 -5 6 6 6 11 1 17
-2 13 -5z m43 -24 c0 -5 -4 -10 -10 -10 -5 0 -10 5 -10 10 0 6 5 10 10 10 6 0
10 -4 10 -10z m-35 -30 c-3 -5 -13 -10 -21 -10 -8 0 -14 5 -14 10 0 6 9 10 21
10 11 0 17 -4 14 -10z m75 2 c0 -11 -41 -34 -48 -28 -3 4 3 13 14 21 21 16 34
19 34 7z m1520 -11 c0 -5 -9 -11 -21 -14 -11 -3 -23 -15 -26 -26 -3 -12 -12
-21 -19 -21 -23 0 -16 27 14 49 28 21 52 27 52 12z m-610 -161 c0 -5 -4 -10
-10 -10 -5 0 -10 5 -10 10 0 6 5 10 10 10 6 0 10 -4 10 -10z"/>
<path d="M3893 2508 l2 -613 235 -3 c297 -4 296 -4 304 51 15 110 19 133 28
144 12 15 30 116 36 208 10 124 3 476 -9 512 -6 19 -11 51 -11 71 0 20 -3 42
-6 47 -8 12 -31 107 -39 158 l-5 37 -268 0 -268 0 1 -612z m57 583 c0 -6 -4
-13 -10 -16 -5 -3 -10 1 -10 9 0 9 5 16 10 16 6 0 10 -4 10 -9z m440 -11 c0
-5 -4 -10 -10 -10 -5 0 -10 5 -10 10 0 6 5 10 10 10 6 0 10 -4 10 -10z m76
-368 c-13 -12 -16 8 -9 49 l8 44 3 -44 c2 -23 1 -46 -2 -49z"/>
<path d="M594 3093 c-3 -10 -11 -31 -19 -48 -7 -16 -16 -50 -20 -75 -4 -25
-11 -72 -16 -105 -30 -203 -38 -620 -11 -647 6 -6 12 -31 12 -54 0 -22 4 -54
9 -70 5 -16 17 -65 26 -109 10 -44 21 -83 24 -87 4 -4 114 -9 246 -10 l240 -3
3 613 2 612 -245 0 c-225 0 -246 -1 -251 -17z m453 -50 c-3 -10 -5 -4 -5 12 0
17 2 24 5 18 2 -7 2 -21 0 -30z m-450 -50 c-3 -10 -5 -4 -5 12 0 17 2 24 5 18
2 -7 2 -21 0 -30z m-31 -230 c-10 -10 -19 5 -10 18 6 11 8 11 12 0 2 -7 1 -15
-2 -18z m44 -64 c0 -4 -6 -9 -14 -12 -17 -7 -28 16 -19 39 6 15 8 15 20 -2 7
-10 13 -21 13 -25z m-33 -191 c-2 -18 -4 -4 -4 32 0 36 2 50 4 33 2 -18 2 -48
0 -65z m17 -243 c7 -27 1 -45 -15 -45 -5 0 -9 16 -9 35 0 41 15 47 24 10z m-7
-142 c-3 -10 -5 -4 -5 12 0 17 2 24 5 18 2 -7 2 -21 0 -30z"/>
</g>
</svg>
